<?xml version="1.0" encoding="utf-8"?>
<!-- Generator: Adobe Illustrator 25.0.1, SVG Export Plug-In . SVG Version: 6.00 Build 0)  -->
<svg version="1.1" id="Layer_1" xmlns="http://www.w3.org/2000/svg" xmlns:xlink="http://www.w3.org/1999/xlink" x="0px" y="0px"
	 viewBox="0 0 200 200" style="enable-background:new 0 0 200 200;" xml:space="preserve">
<style type="text/css">
	.st0{fill:#1C3661;}
</style>
<g>
	<path class="st0" d="M104.4,11.5c0,0,0-0.1,0-0.1c0-1.2-1-2.2-2.3-2.1c-1.2,0-2.2,1-2.1,2.3l2.2,82.9L104.4,11.5z"/>
	<path class="st0" d="M87.1,51.9l13.6,42.7l-9.3-43.8c0-0.1,0-0.1-0.1-0.2c-0.4-1.2-1.6-1.8-2.8-1.4C87.4,49.5,86.7,50.7,87.1,51.9z
		"/>
	<path class="st0" d="M99.3,95.2L59.7,22.3c0,0,0-0.1-0.1-0.1c-0.6-1-2-1.4-3-0.7c-1,0.6-1.4,2-0.7,3L99.3,95.2z"/>
	<path class="st0" d="M64.8,62.8c-0.8,0.9-0.8,2.3,0.1,3.1l33.1,30.2l-30-33.3c0-0.1-0.1-0.1-0.2-0.2C67,61.9,65.6,61.9,64.8,62.8z"
		/>
	<path class="st0" d="M24.2,57.8l72.9,39.6L26.5,54c0,0-0.1,0-0.1-0.1c-1.1-0.6-2.4-0.2-3,0.9C22.8,55.9,23.2,57.2,24.2,57.8z"/>
	<path class="st0" d="M51.1,86.6c-0.3,1.2,0.5,2.4,1.7,2.6l43.8,9.6L53.9,84.9c-0.1,0-0.1,0-0.2-0.1C52.5,84.6,51.4,85.4,51.1,86.6z
		"/>
	<path class="st0" d="M13.5,98.1c0,0-0.1,0-0.1,0c-1.2,0-2.2,1-2.1,2.3c0,1.2,1,2.2,2.3,2.1l82.9-2.2L13.5,98.1z"/>
	<path class="st0" d="M52.5,111.2c-1.2,0.4-1.8,1.6-1.4,2.8c0.4,1.2,1.6,1.8,2.8,1.4l42.7-13.6l-43.8,9.3
		C52.7,111.1,52.6,111.2,52.5,111.2z"/>
	<path class="st0" d="M24.2,142.7c0,0-0.1,0-0.1,0.1c-1,0.6-1.4,2-0.7,3c0.6,1,2,1.4,3,0.7l70.7-43.4L24.2,142.7z"/>
	<path class="st0" d="M64.6,134.6c-0.8,0.9-0.8,2.3,0.1,3.1c0.9,0.8,2.3,0.8,3.1-0.1l30.2-33.1l-33.3,30
		C64.7,134.5,64.7,134.5,64.6,134.6z"/>
	<path class="st0" d="M55.9,176c0,0,0,0.1-0.1,0.1c-0.6,1.1-0.2,2.4,0.9,3c1.1,0.6,2.4,0.2,3-0.9l39.6-72.9L55.9,176z"/>
	<path class="st0" d="M86.9,148.6c0,0.1,0,0.1-0.1,0.2c-0.3,1.2,0.5,2.4,1.7,2.6c1.2,0.3,2.4-0.5,2.6-1.7l9.6-43.8L86.9,148.6z"/>
	<path class="st0" d="M100,189c0,0,0,0.1,0,0.1c0,1.2,1,2.2,2.3,2.1c1.2,0,2.2-1,2.1-2.3l-2.2-82.9L100,189z"/>
	<path class="st0" d="M117.3,148.6l-13.6-42.7l9.3,43.8c0,0.1,0,0.1,0.1,0.2c0.4,1.2,1.6,1.8,2.8,1.4
		C117.1,151,117.7,149.8,117.3,148.6z"/>
	<path class="st0" d="M105.1,105.3l39.6,72.9c0,0,0,0.1,0.1,0.1c0.6,1,2,1.4,3,0.7c1-0.6,1.4-2,0.7-3L105.1,105.3z"/>
	<path class="st0" d="M136.5,137.9c0.9,0.8,2.3,0.8,3.1-0.1s0.8-2.3-0.1-3.1l-33.1-30.2l30,33.3
		C136.4,137.8,136.5,137.8,136.5,137.9z"/>
	<path class="st0" d="M180.2,142.7l-72.9-39.6l70.7,43.4c0,0,0.1,0,0.1,0.1c1.1,0.6,2.4,0.2,3-0.9
		C181.7,144.7,181.3,143.3,180.2,142.7z"/>
	<path class="st0" d="M150.7,115.7c1.2,0.3,2.4-0.5,2.6-1.7c0.3-1.2-0.5-2.4-1.7-2.6l-43.8-9.6l42.6,13.8
		C150.6,115.6,150.7,115.7,150.7,115.7z"/>
	<path class="st0" d="M191,98.1l-82.9,2.2l82.9,2.2c0,0,0.1,0,0.1,0c1.2,0,2.2-1,2.1-2.3C193.2,99,192.2,98,191,98.1z"/>
	<path class="st0" d="M150.6,85.1l-42.7,13.6l43.8-9.3c0.1,0,0.1,0,0.2-0.1c1.2-0.4,1.8-1.6,1.4-2.8C153,85.4,151.7,84.8,150.6,85.1
		z"/>
	<path class="st0" d="M180.2,57.8c0,0,0.1,0,0.1-0.1c1-0.6,1.4-2,0.7-3c-0.6-1-2-1.4-3-0.7l-70.7,43.4L180.2,57.8z"/>
	<path class="st0" d="M139.7,62.8c-0.9-0.8-2.3-0.8-3.1,0.1l-30.2,33.1l33.3-30c0.1,0,0.1-0.1,0.2-0.2
		C140.6,65.1,140.6,63.7,139.7,62.8z"/>
	<path class="st0" d="M148.5,24.5c0,0,0-0.1,0.1-0.1c0.6-1.1,0.2-2.4-0.9-3c-1.1-0.6-2.4-0.2-3,0.9l-39.6,72.9L148.5,24.5z"/>
	<path class="st0" d="M117.6,52c0-0.1,0-0.1,0.1-0.2c0.3-1.2-0.5-2.4-1.7-2.6c-1.2-0.3-2.4,0.5-2.6,1.7l-9.6,43.8L117.6,52z"/>
	<circle class="st0" cx="57.3" cy="55.4" r="2.7"/>
	<path class="st0" d="M38.3,83.1c-0.4,1.5,0.5,3,1.9,3.3c1.5,0.4,3-0.5,3.3-1.9c0.4-1.5-0.5-3-1.9-3.3
		C40.2,80.8,38.7,81.7,38.3,83.1z"/>
	<path class="st0" d="M40.2,114.1c-1.5,0.4-2.3,1.9-1.9,3.3c0.4,1.5,1.9,2.3,3.3,1.9c1.5-0.4,2.3-1.9,1.9-3.3
		C43.2,114.5,41.7,113.7,40.2,114.1z"/>
	<circle class="st0" cx="57.3" cy="145.1" r="2.7"/>
	<path class="st0" d="M86.5,158.9c-1.5-0.4-3,0.5-3.3,1.9c-0.4,1.5,0.5,3,1.9,3.3c1.5,0.4,3-0.5,3.3-1.9
		C88.8,160.8,88,159.3,86.5,158.9z"/>
	<path class="st0" d="M117.9,158.9c-1.5,0.4-2.3,1.9-1.9,3.3c0.4,1.5,1.9,2.3,3.3,1.9c1.5-0.4,2.3-1.9,1.9-3.3
		C120.9,159.4,119.4,158.5,117.9,158.9z"/>
	<path class="st0" d="M145.2,143.2c-1.1,1.1-1.1,2.8,0,3.9c1.1,1.1,2.8,1.1,3.9,0c1.1-1.1,1.1-2.8,0-3.9
		C148,142.1,146.2,142.1,145.2,143.2z"/>
	<path class="st0" d="M166.2,117.4c0.4-1.5-0.5-3-1.9-3.3c-1.5-0.4-3,0.5-3.3,1.9c-0.4,1.5,0.5,3,1.9,3.3
		C164.3,119.7,165.8,118.9,166.2,117.4z"/>
	<path class="st0" d="M162.8,81.2c-1.5,0.4-2.3,1.9-1.9,3.3c0.4,1.5,1.9,2.3,3.3,1.9c1.5-0.4,2.3-1.9,1.9-3.3
		C165.8,81.7,164.3,80.8,162.8,81.2z"/>
	<path class="st0" d="M145.2,53.5c-1.1,1.1-1.1,2.8,0,3.9c1.1,1.1,2.8,1.1,3.9,0c1.1-1.1,1.1-2.8,0-3.9
		C148,52.4,146.2,52.4,145.2,53.5z"/>
	<path class="st0" d="M117.9,41.6c1.5,0.4,3-0.5,3.3-1.9c0.4-1.5-0.5-3-1.9-3.3c-1.5-0.4-3,0.5-3.3,1.9
		C115.6,39.7,116.5,41.2,117.9,41.6z"/>
	<path class="st0" d="M86.5,41.6c1.5-0.4,2.3-1.9,1.9-3.3c-0.4-1.5-1.9-2.3-3.3-1.9c-1.5,0.4-2.3,1.9-1.9,3.3
		C83.5,41.1,85,42,86.5,41.6z"/>
</g>
</svg>
